<svg version="1.1" id="Layer_1" xmlns="http://www.w3.org/2000/svg" xmlns:xlink="http://www.w3.org/1999/xlink" x="0px" y="0px"
     viewBox="0 0 1024 1024" xml:space="preserve" shape-rendering="crispEdges">
<path fill="currentColor" opacity="1.000000" stroke="none" 
	d="
M419.241547,751.760010 
	C386.053589,723.276123 347.930756,705.482483 305.978912,695.436096 
	C276.434326,688.360901 246.549377,684.253357 216.077911,685.314697 
	C209.461182,685.545105 203.115646,684.087280 197.420471,680.710327 
	C189.899170,676.250549 185.617523,669.801819 185.620758,660.684082 
	C185.665756,533.851013 185.642975,407.017914 185.661682,280.184814 
	C185.664307,262.431824 196.175888,252.054367 213.944229,251.611618 
	C250.866943,250.691605 286.756073,256.975433 322.114990,266.911835 
	C355.229767,276.217621 386.513245,289.582764 414.373016,310.089691 
	C430.847229,322.215973 445.317535,336.411255 456.915314,353.385498 
	C457.925690,354.864288 458.812500,356.540619 460.732330,357.277435 
	C463.214966,356.267883 464.263855,353.866302 465.751251,351.931488 
	C491.706940,318.167328 526.206665,296.144348 564.887146,279.946930 
	C587.509766,270.473694 610.846069,263.290253 635.078735,259.224152 
	C656.776062,255.583496 678.543762,253.273987 700.579834,255.691223 
	C718.017944,257.604065 733.485779,272.705292 737.272095,291.873718 
	C738.624207,298.718750 739.374756,305.629333 739.371155,312.654724 
	C739.315125,422.321228 739.329224,531.987793 739.341858,641.654297 
	C739.342834,649.879944 738.309998,657.937500 735.195740,665.582703 
	C728.980957,680.839111 717.492920,689.478943 701.233032,691.360779 
	C675.823059,694.301453 650.357056,696.584473 625.414978,702.824768 
	C592.699829,711.009766 561.904358,723.756042 532.668396,740.398376 
	C515.385254,750.236816 499.361420,761.874695 484.465820,775.054321 
	C472.283142,785.833740 450.904633,788.522949 438.135986,771.499451 
	C432.732971,764.296021 426.015991,758.212280 419.241547,751.760010 
M283.014008,302.629791 
	C268.344116,299.773010 253.619492,297.352966 238.709061,296.037415 
	C231.767731,295.424957 231.061172,295.717957 231.062012,302.464630 
	C231.075119,407.931000 231.076859,513.397400 231.093216,618.863770 
	C231.093994,623.860168 231.204575,628.856506 231.267380,633.852905 
	C231.300323,636.473816 232.455490,637.560608 235.248138,637.702271 
	C260.000336,638.957825 284.496979,642.198730 308.684326,647.646484 
	C353.279327,657.690491 394.494354,675.112854 430.664948,703.558838 
	C432.677002,705.141235 434.158020,707.695496 437.236328,707.726990 
	C439.320404,705.227173 438.628662,702.286377 438.629730,699.541504 
	C438.665222,606.736633 438.650269,513.931763 438.701233,421.126953 
	C438.703552,416.907745 437.962799,412.862579 436.924438,408.839417 
	C430.301056,383.175934 414.036224,364.393036 393.362000,349.099396 
	C360.625854,324.882935 323.283936,311.300354 283.014008,302.629791 
M694.646240,611.500061 
	C694.646912,585.840210 694.648132,560.180420 694.648132,534.520569 
	C694.648071,461.706573 694.647949,388.892578 694.646667,316.078583 
	C694.646423,303.797974 690.106323,299.100555 677.700623,299.478912 
	C670.079895,299.711334 662.431213,300.443024 654.888977,301.575562 
	C629.337036,305.412292 604.317932,311.295197 580.422424,321.458893 
	C550.408569,334.224915 523.654724,351.453217 502.719177,376.928864 
	C490.067810,392.323792 482.908539,409.079285 483.037445,429.813721 
	C483.623657,524.117920 483.252625,618.428101 483.256439,712.736084 
	C483.256500,714.327026 482.787476,716.050964 483.935394,717.546387 
	C485.825867,717.609192 486.977051,716.241638 488.267029,715.315552 
	C511.392548,698.714111 536.341858,685.459412 562.751709,674.955444 
	C603.302002,658.827454 645.313110,648.656189 688.786682,644.662415 
	C692.764404,644.297058 694.824280,642.883362 694.710510,638.491516 
	C694.486267,629.832947 694.645203,621.164490 694.646240,611.500061 
z"/>
<path fill="currentColor" opacity="1.000000" stroke="none" 
	d="
M775.617676,537.999878 
	C775.612183,503.529175 775.605896,469.558502 775.603455,435.587799 
	C775.602600,424.071106 783.583984,415.906738 795.639221,415.080475 
	C807.465881,414.269867 816.984741,422.060791 818.436829,433.498596 
	C819.344055,440.644928 818.967163,447.800629 818.977661,454.947845 
	C819.040039,497.244049 819.017639,539.540405 818.959656,581.836670 
	C818.953735,586.153748 818.850281,590.518494 818.224487,594.777710 
	C816.576355,605.993774 807.091064,612.274719 793.656311,611.363342 
	C783.976501,610.706665 775.741333,601.979980 775.675964,591.953735 
	C775.559875,574.136414 775.627563,556.317932 775.617676,537.999878 
z"/>
<path fill="currentColor" opacity="1.000000" stroke="none" 
	d="
M894.274292,494.048279 
	C894.275818,510.510162 894.306396,526.479919 894.267700,542.449585 
	C894.242676,552.763123 889.055481,560.220093 880.090698,563.026611 
	C870.520569,566.022522 860.671631,562.770142 854.968445,554.634521 
	C853.044006,551.889343 851.676758,548.936279 851.613647,545.419495 
	C851.267517,526.145813 850.624695,506.876648 851.546997,487.598602 
	C852.133728,475.334747 860.370789,467.550262 872.926147,467.633636 
	C885.011047,467.713898 893.933472,476.244324 894.272522,488.066711 
	C894.324951,489.895020 894.276062,491.726227 894.274292,494.048279 
z"/>
<path fill="currentColor" opacity="1.000000" stroke="none" 
	d="
M628.720215,619.672974 
	C617.724792,615.372803 613.775879,608.766846 613.773804,594.985291 
	C613.767029,550.519287 613.780334,506.053284 613.783142,461.587280 
	C613.783875,450.096039 613.595032,438.601501 613.808350,427.114288 
	C614.216003,405.154388 634.412231,400.750305 646.261841,407.025757 
	C652.881409,410.531372 656.820190,416.030670 657.367371,423.662903 
	C658.714783,442.456360 657.858276,461.277161 657.942749,480.083832 
	C658.110352,517.387817 658.044922,554.693115 657.970215,591.997620 
	C657.961304,596.466797 657.777283,601.038208 656.841125,605.382629 
	C654.550476,616.012146 644.122192,624.160767 628.720215,619.672974 
z"/>
<path fill="currentColor" opacity="1.000000" stroke="none" 
	d="
M582.275818,504.005920 
	C582.273743,518.153015 582.509033,531.806885 582.186096,545.447571 
	C581.959534,555.018921 577.644531,562.362610 568.384094,566.108093 
	C560.564697,569.270813 551.499146,567.084351 545.098267,560.466858 
	C541.485718,556.731995 539.609192,552.249695 539.618164,546.971436 
	C539.649658,528.496460 539.611755,510.021332 539.618408,491.546265 
	C539.622375,480.583466 546.232727,473.124237 558.185913,471.137695 
	C566.032654,469.833618 576.885376,474.385101 580.496155,484.267090 
	C582.810120,490.599854 582.063110,497.062836 582.275818,504.005920 
z"/>
</svg>